<svg xmlns="http://www.w3.org/2000/svg" viewBox="0 0 200 200"><defs><linearGradient id="bg" x1="0" y1="0" x2="1" y2="1"><stop offset="0" stop-color="#6E5DEC"/><stop offset="1" stop-color="#43319F"/></linearGradient><linearGradient id="spark" x1="0" y1="1" x2="1" y2="0"><stop offset="0" stop-color="#8F80FF"/><stop offset="0.45" stop-color="#FFC862"/><stop offset="1" stop-color="#FFB13A"/></linearGradient><linearGradient id="face" x1="0" y1="0" x2="0" y2="1"><stop offset="0" stop-color="#FFFFFF"/><stop offset="0.5" stop-color="#F3EEFF"/><stop offset="1" stop-color="#CBBCFF"/></linearGradient><linearGradient id="sheen" x1="0" y1="0" x2="0" y2="1"><stop offset="0" stop-color="#ffffff" stop-opacity="0.2"/><stop offset="0.5" stop-color="#ffffff" stop-opacity="0"/></linearGradient></defs><g transform="translate(8,8) scale(0.92)"><path d="M18 170 L44 160 L64 176 L98 174 L132 166 L158 128 L176 92 L186 46" fill="none" stroke="url(#spark)" stroke-width="9" stroke-linecap="round" stroke-linejoin="round"/><circle cx="186" cy="46" r="11" fill="#FFB13A"/><circle cx="186" cy="46" r="11" fill="none" stroke="#ffffff" stroke-opacity="0.65" stroke-width="1.8"/><g font-family="Helvetica, 'Helvetica Neue', Arial, sans-serif" font-weight="700" font-size="150" text-anchor="middle"><g transform="translate(6.00,6.90)"><text x="100" y="150" fill="#201561">?</text></g><g transform="translate(5.00,5.75)"><text x="100" y="150" fill="#281C78">?</text></g><g transform="translate(4.00,4.60)"><text x="100" y="150" fill="#32248E">?</text></g><g transform="translate(3.00,3.45)"><text x="100" y="150" fill="#3D2CA6">?</text></g><g transform="translate(2.00,2.30)"><text x="100" y="150" fill="#4935BE">?</text></g><g transform="translate(1.00,1.15)"><text x="100" y="150" fill="#5540D4">?</text></g><text x="100" y="150" fill="url(#face)">?</text><g transform="translate(-1,-1.4)"><text x="100" y="150" fill="#ffffff" opacity="0.22">?</text></g></g></g></svg>