<svg xmlns="http://www.w3.org/2000/svg" viewBox="0 0 24 24"><path fill="#635BFF" d="M13.976 9.15c-2.172-.806-3.356-1.426-3.356-2.409 0-.831.683-1.305 1.901-1.305 2.227 0 4.515.858 6.09 1.631l.89-5.494C18.252.975 15.697 0 12.165 0 9.667 0 7.589.654 6.104 1.872 4.56 3.147 3.757 4.918 3.757 7.11c0 4.46 2.921 5.993 6.079 7.161 1.867.689 2.86 1.207 2.86 2.268 0 1.063-.97 1.739-2.681 1.739-2.177 0-5.155-1.04-7.178-2.467l-.946 5.64C3.596 22.469 6.458 24 10.738 24c2.669 0 4.865-.674 6.374-1.94 1.677-1.391 2.523-3.4 2.523-5.972 0-4.583-3.033-6.16-5.66-6.938z"/></svg>
